<?xml version="1.0" encoding="utf-8"?>
<!-- Generator: Adobe Illustrator 26.2.1, SVG Export Plug-In . SVG Version: 6.00 Build 0)  -->
<svg version="1.1" id="Layer_2_00000103265100911764449650000000446360065081930139_"
	 xmlns="http://www.w3.org/2000/svg" xmlns:xlink="http://www.w3.org/1999/xlink" x="0px" y="0px" viewBox="0 0 980 551"
	 style="enable-background:new 0 0 980 551;" xml:space="preserve">
<style type="text/css">
	.st0{fill:#E6F9EE;}
	.st1{fill:#02C652;}
	.st2{fill-rule:evenodd;clip-rule:evenodd;fill:#02C652;}
	.image-cover{fill-opacity:0;}
</style>
<g>
	<path class="st0" d="M533.5-178.9c54-54,81-81,108.5-98.1c91.1-56.6,206.4-56.6,297.5,0c27.5,17.1,54.5,44.1,108.5,98.1
		s81,81,98.1,108.5c56.6,91.1,56.6,206.4,0,297.5c-17.1,27.5-44.1,54.5-98.1,108.5s-81,81-108.5,98.1c-91.1,56.6-206.4,56.6-297.5,0
		c-27.5-17.1-54.5-44.1-108.5-98.1l0,0c-54-54-81-81-98.1-108.5c-56.6-91.1-56.6-206.4,0-297.5C452.5-97.9,479.5-124.9,533.5-178.9
		L533.5-178.9z"/>
	<path class="st1" d="M571.2-141.3c46.1-46.1,69.2-69.2,92.7-83.8c77.8-48.4,176.3-48.4,254,0c23.5,14.6,46.6,37.7,92.7,83.8
		s69.2,69.2,83.8,92.7c48.4,77.8,48.4,176.3,0,254c-14.6,23.5-37.7,46.6-83.8,92.7c-46.1,46.1-69.2,69.2-92.7,83.8
		c-77.8,48.4-176.3,48.4-254,0c-23.5-14.6-46.6-37.7-92.7-83.8l0,0c-46.1-46.1-69.2-69.2-83.8-92.7c-48.4-77.8-48.4-176.3,0-254
		C502-72.1,525-95.2,571.2-141.3L571.2-141.3z"/>
</g>
<g>
	<path class="st1" d="M249.7,75.7h-3.3v3.8h3.3v11.1h4.6V79.5h3.9v-3.8h-3.9v-0.8c0-0.6,0.2-1,0.5-1.2c0.4-0.3,0.9-0.4,1.6-0.4
		c0.3,0,0.6,0,0.9,0s0.6,0.1,0.9,0.2v-3.8c-0.4-0.1-0.8-0.2-1.1-0.2c-0.4-0.1-0.9-0.1-1.3-0.1c-1.9,0-3.4,0.5-4.5,1.4
		c-1,0.9-1.6,2.3-1.6,4V75.7z"/>
	<path class="st1" d="M170.6,87.5l2.7-3.5c1,0.8,2.1,1.5,3.3,2.1c1,0.4,2.1,0.6,3.2,0.6c1.1,0,2-0.2,2.6-0.5s0.9-0.8,0.9-1.4
		c0-0.2,0-0.5-0.2-0.7c-0.1-0.2-0.3-0.4-0.5-0.6c-0.4-0.3-1.1-0.5-2.1-0.7l-4.3-0.8c-1.6-0.3-2.8-0.9-3.7-1.8s-1.3-2.1-1.3-3.6
		c0-1.9,0.7-3.4,2.1-4.5c1.4-1.1,3.4-1.6,5.9-1.6c1.5,0,3,0.3,4.4,0.8s2.7,1.1,3.8,2.1l-2.6,3.6c-0.9-0.7-1.9-1.3-3-1.8
		c-1-0.4-2-0.6-3-0.6s-1.7,0.2-2.3,0.5s-0.9,0.7-0.9,1.2c0,0.2,0,0.4,0.1,0.6s0.2,0.4,0.4,0.5c0.4,0.3,1,0.5,1.8,0.6l4.1,0.7
		c1.9,0.3,3.3,0.9,4.3,1.9s1.5,2.2,1.5,3.7c0,2-0.8,3.6-2.3,4.7c-1.5,1.2-3.6,1.7-6.3,1.7c-1.6,0-3.2-0.3-4.7-0.9
		C173.2,89.4,171.8,88.6,170.6,87.5z"/>
	<path class="st1" d="M119.2,90.5l-7.9-19.7h5.2l5.6,14.6l5.7-14.6h5l-8.1,19.7H119.2z"/>
	<path class="st1" d="M137.1,75.7v8.5c0,0.4,0,0.7,0.2,1.1c0.1,0.3,0.3,0.6,0.6,0.9s0.6,0.5,0.9,0.6c0.3,0.1,0.7,0.2,1.1,0.2
		c0.5,0,1.1-0.1,1.5-0.3c0.4-0.2,0.8-0.5,1.1-0.9V75.7h4.6v14.9h-4.6v-1c-0.6,0.4-1.2,0.7-1.8,1c-0.7,0.2-1.4,0.3-2.1,0.3
		c-1.7,0-3.2-0.6-4.3-1.7s-1.7-2.6-1.7-4.3v-9.2C132.6,75.7,137.1,75.7,137.1,75.7z"/>
	<path class="st2" d="M160.5,90.3c1.1-0.4,2-1,2.9-1.7l-3-2.7c-0.4,0.4-0.8,0.6-1.3,0.8c-0.5,0.2-1.1,0.3-1.7,0.3
		c-0.8,0-1.6-0.2-2.2-0.7c-0.6-0.4-1.1-1-1.4-1.7h10.6v-1.1c0-1.1-0.2-2.2-0.6-3.2c-0.3-1-0.9-1.8-1.6-2.6c-0.7-0.7-1.5-1.3-2.4-1.7
		c-0.9-0.4-1.9-0.6-2.9-0.6s-2.1,0.2-3,0.6s-1.8,0.9-2.5,1.6s-1.3,1.5-1.6,2.5c-0.4,1-0.6,2-0.6,3s0.2,2.1,0.6,3
		c0.4,0.9,1,1.8,1.7,2.5s1.6,1.3,2.6,1.6c1,0.4,2.1,0.6,3.2,0.6C158.3,90.8,159.5,90.7,160.5,90.3z M154.8,79.7
		c0.6-0.4,1.2-0.6,1.9-0.6s1.4,0.2,1.9,0.6c0.6,0.4,1,1,1.2,1.7h-6.2C153.9,80.8,154.3,80.2,154.8,79.7z"/>
	<path class="st1" d="M191.6,79.5V86c0,1.6,0.5,2.7,1.4,3.5s2.3,1.2,4,1.2c0.5,0,1.1-0.1,1.6-0.1c0.5-0.1,1.1-0.2,1.6-0.3v-3.7
		c-0.3,0.1-0.7,0.2-1,0.2s-0.7,0.1-1,0.1c-0.7,0-1.2-0.1-1.5-0.4s-0.4-0.7-0.4-1.4v-5.6h4.2v-3.8h-4.2v-4.8l-4.6,1v3.8h-3v3.8
		C188.7,79.5,191.6,79.5,191.6,79.5z"/>
	<path class="st2" d="M201.4,83.1c0-1,0.2-2.1,0.6-3c0.4-0.9,1-1.8,1.7-2.5s1.6-1.3,2.6-1.6c2-0.8,4.3-0.8,6.3,0
		c0.9,0.4,1.8,0.9,2.6,1.6c0.7,0.7,1.3,1.5,1.7,2.5s0.6,2,0.6,3s-0.2,2.1-0.6,3c-0.4,0.9-1,1.8-1.7,2.5s-1.6,1.3-2.6,1.6
		c-2,0.8-4.3,0.8-6.3,0c-0.9-0.4-1.8-0.9-2.6-1.6c-0.7-0.7-1.3-1.5-1.7-2.5C201.6,85.2,201.4,84.2,201.4,83.1z M209.5,86.9
		c0.5,0,1-0.1,1.4-0.3c0.4-0.2,0.8-0.5,1.2-0.8c0.7-0.7,1.1-1.7,1.1-2.7s-0.4-2-1.1-2.7c-0.3-0.3-0.7-0.6-1.2-0.8
		c-0.4-0.2-0.9-0.3-1.4-0.3s-1,0.1-1.4,0.3c-0.4,0.2-0.8,0.5-1.2,0.8c-0.7,0.7-1.1,1.7-1.1,2.7s0.4,2,1.1,2.7
		c0.3,0.4,0.7,0.6,1.2,0.8C208.5,86.8,209,86.9,209.5,86.9z"/>
	<path class="st1" d="M219.7,75.7v14.9h4.6v-9.4c0.4-0.6,0.9-1,1.5-1.4c0.6-0.3,1.3-0.5,2-0.5c0.4,0,0.8,0,1.2,0.1
		c0.3,0.1,0.7,0.2,1,0.3v-4c-0.2-0.1-0.4-0.2-0.7-0.3c-0.3-0.1-0.7-0.1-1-0.1c-0.8,0-1.5,0.2-2.2,0.5s-1.2,0.8-1.7,1.3v-1.5
		L219.7,75.7L219.7,75.7z"/>
	<path class="st2" d="M244.9,88.6c-0.9,0.7-1.8,1.3-2.9,1.7c-1.1,0.4-2.2,0.6-3.3,0.5c-1.1,0-2.2-0.2-3.2-0.6s-1.8-0.9-2.6-1.6
		c-0.7-0.7-1.3-1.5-1.7-2.5s-0.6-2-0.6-3s0.2-2.1,0.6-3c0.4-0.9,0.9-1.8,1.6-2.5c0.7-0.7,1.5-1.3,2.5-1.6c1-0.4,2-0.6,3-0.6
		s2,0.2,2.9,0.6s1.8,1,2.4,1.7c0.7,0.7,1.2,1.6,1.6,2.6c0.4,1,0.6,2.1,0.6,3.2v1.1h-10.6c0.3,0.7,0.8,1.3,1.4,1.7
		c0.7,0.4,1.4,0.7,2.2,0.7c0.6,0,1.1-0.1,1.7-0.3c0.5-0.2,0.9-0.5,1.3-0.8L244.9,88.6z M238.2,79.1c-0.7,0-1.4,0.2-1.9,0.6
		c-0.6,0.4-1,1.1-1.2,1.7h6.2c-0.2-0.7-0.6-1.3-1.2-1.7C239.6,79.3,238.9,79.1,238.2,79.1z"/>
	<path class="st1" d="M260.1,90.5V75.7h4.6v1.5c0.5-0.6,1.1-1,1.7-1.3c0.7-0.3,1.4-0.5,2.2-0.5c0.3,0,0.7,0,1,0.1
		c0.2,0,0.5,0.1,0.7,0.3v4c-0.3-0.1-0.7-0.2-1-0.3c-0.4-0.1-0.8-0.1-1.2-0.1c-0.7,0-1.4,0.2-2,0.5s-1.1,0.8-1.5,1.4v9.4h-4.5V90.5z"
		/>
	<path class="st2" d="M271.6,80.1c-0.4,1-0.6,2-0.6,3s0.2,2.1,0.6,3s1,1.8,1.7,2.5s1.6,1.3,2.6,1.6c2,0.8,4.3,0.8,6.3,0
		c1-0.4,1.8-0.9,2.6-1.6c0.7-0.7,1.3-1.5,1.7-2.5c0.4-1,0.6-2,0.6-3s-0.2-2.1-0.6-3s-1-1.8-1.7-2.5s-1.6-1.3-2.6-1.6
		c-2-0.8-4.3-0.8-6.3,0c-0.9,0.4-1.8,0.9-2.6,1.6C272.6,78.3,272,79.2,271.6,80.1z M280.5,86.6c-0.4,0.2-0.9,0.3-1.4,0.3
		s-1-0.1-1.4-0.3c-0.4-0.2-0.8-0.5-1.2-0.8c-0.7-0.7-1.1-1.7-1.1-2.7s0.4-2,1.1-2.7c0.3-0.3,0.7-0.6,1.2-0.8
		c0.4-0.2,0.9-0.3,1.4-0.3s1,0.1,1.4,0.3c0.4,0.2,0.8,0.5,1.2,0.8c0.7,0.7,1.1,1.7,1.1,2.7s-0.4,2-1.1,2.7
		C281.3,86.1,280.9,86.4,280.5,86.6z"/>
	<path class="st1" d="M289.3,75.7h4.6v1c0.6-0.4,1.2-0.7,1.8-1c0.7-0.2,1.4-0.3,2.1-0.3c1.7,0,3.2,0.6,4.3,1.7
		c1.1,1.1,1.7,2.6,1.7,4.3v9.2h-4.6V82c0-0.4,0-0.7-0.2-1.1c-0.1-0.3-0.3-0.6-0.6-0.9c-0.3-0.3-0.6-0.5-0.9-0.6s-0.7-0.2-1.1-0.2
		c-0.5,0-1.1,0.1-1.5,0.3c-0.4,0.2-0.8,0.5-1.1,0.9v10.1h-4.6V75.7H289.3z"/>
	<path class="st1" d="M308,79.5V86c0,1.6,0.5,2.7,1.4,3.5s2.3,1.2,4,1.2c0.5,0,1.1-0.1,1.6-0.1c0.5-0.1,1.1-0.2,1.6-0.3v-3.7
		c-0.3,0.1-0.7,0.2-1,0.2s-0.7,0.1-1,0.1c-0.7,0-1.2-0.1-1.5-0.4s-0.4-0.7-0.4-1.4v-5.6h4.2v-3.8h-4.2v-4.8l-4.5,1v3.8h-3v3.8
		C305.2,79.5,308,79.5,308,79.5z"/>
	<path class="st1" d="M80.3,63.3c-0.3,0.2-0.6,0.5-1.2,1.1c-0.6,0.6-0.9,0.9-1.1,1.2c-0.6,1-0.6,2.3,0,3.3c0.2,0.3,0.5,0.6,1.1,1.2
		l0,0c0.6,0.6,0.9,0.9,1.2,1.1c1,0.6,2.3,0.6,3.3,0c0.3-0.2,0.6-0.5,1.2-1.1s0.9-0.9,1.1-1.2c0.6-1,0.6-2.3,0-3.3
		c-0.2-0.3-0.5-0.6-1.1-1.2s-0.9-0.9-1.2-1.1C82.6,62.7,81.3,62.7,80.3,63.3z"/>
	<path class="st1" d="M84.3,81.9l6.9-6.9c0.3-0.3,0.6-0.5,1-0.7s0.8-0.2,1.2-0.2s0.8,0.1,1.2,0.2c0.4,0.2,0.7,0.4,1,0.7l3.5,3.5
		l-17,17l-17-17c0,0,1.9-1.9,3.5-3.5c0.3-0.3,0.6-0.5,1-0.7s0.8-0.2,1.2-0.2s0.8,0.1,1.2,0.2c0.4,0.2,0.7,0.4,1,0.7l7,7
		c0.3,0.3,0.6,0.5,1,0.7s0.8,0.2,1.2,0.2c0.4,0,0.8-0.1,1.2-0.2C83.6,82.4,84,82.2,84.3,81.9z"/>
</g>
<rect x="392.9" class="image-cover" width="587" height="551"/>
</svg>
