<?xml version="1.0" encoding="utf-8"?>
<!-- Generator: Adobe Illustrator 26.2.1, SVG Export Plug-In . SVG Version: 6.00 Build 0)  -->
<svg version="1.1" id="Layer_2" xmlns="http://www.w3.org/2000/svg" xmlns:xlink="http://www.w3.org/1999/xlink" x="0px" y="0px"
	 viewBox="0 0 980 551" style="enable-background:new 0 0 980 551;" xml:space="preserve"
>
<style type="text/css">
	.st0{fill:#02C652;}
	.st1{fill:#FFFFFF;}
</style>
<path class="st0" d="M930.3,61.6l-15.1-15.1c-6.2-6.2-6.2-16.4,0-22.6l40.9-40.9c6.2-6.2,16.4-6.2,22.6,0l15.1,15.1
	c6.2,6.2,6.2,16.4,0,22.6l-40.9,40.9C946.7,67.9,936.5,67.9,930.3,61.6z"/>
<g>
	<path class="st1" d="M939.5,26.1c1.3,0.8,2.9,0.8,4.1,0c0.4-0.2,0.8-0.6,1.5-1.4c0.7-0.7,1.1-1.1,1.4-1.5c0.8-1.3,0.8-2.9,0-4.1
		c-0.2-0.4-0.6-0.8-1.4-1.5c-0.7-0.7-1.1-1.1-1.5-1.4c-1.3-0.8-2.9-0.8-4.1,0c-0.4,0.2-0.8,0.6-1.5,1.4c-0.7,0.7-1.1,1.1-1.4,1.5
		c-0.8,1.3-0.8,2.9,0,4.1c0.2,0.4,0.6,0.8,1.4,1.5l0,0C938.7,25.4,939.1,25.8,939.5,26.1z"/>
	<path class="st1" d="M957.3,30.1c-0.5-0.2-1-0.3-1.5-0.3c-0.5,0-1,0.1-1.5,0.3c-0.5,0.2-0.9,0.5-1.3,0.8l-8.7,8.7
		c-0.4,0.4-0.8,0.6-1.3,0.8c-0.5,0.2-1,0.3-1.5,0.3c-0.5,0-1-0.1-1.5-0.3c-0.5-0.2-0.9-0.5-1.3-0.8l-8.7-8.7
		c-0.4-0.4-0.8-0.6-1.3-0.8c-0.5-0.2-1-0.3-1.5-0.3c-0.5,0-1,0.1-1.5,0.3c-0.5,0.2-0.9,0.5-1.3,0.8c-2,2-4.4,4.4-4.4,4.4l21.3,21.3
		c0,0,21.3-21.3,21.3-21.3l-4.4-4.4C958.2,30.5,957.8,30.3,957.3,30.1z"/>
</g>
</svg>
