<?xml version="1.0" encoding="utf-8"?>
<!-- Generator: Adobe Illustrator 26.2.1, SVG Export Plug-In . SVG Version: 6.00 Build 0)  -->
<svg version="1.1" id="Layer_1"
	xmlns="http://www.w3.org/2000/svg"
	xmlns:xlink="http://www.w3.org/1999/xlink" x="0px" y="0px" viewBox="0 0 1038.5 176" style="enable-background:new 0 0 1038.5 176;" xml:space="preserve">
	<path class="logoColorClass" d="M31.1,31.1C43,19.2,49,13.2,55.1,9.4c20.1-12.5,45.7-12.5,65.8,0c6.1,3.8,12.1,9.8,24,21.7
	s17.9,17.9,21.7,24c12.5,20.1,12.5,45.7,0,65.8c-3.8,6.1-9.8,12.1-21.7,24s-17.9,17.9-24,21.7c-20.1,12.5-45.7,12.5-65.8,0
	c-6.1-3.8-12.1-9.8-24-21.7l0,0C19.2,133,13.2,127,9.4,120.9c-12.5-20.1-12.5-45.7,0-65.8C13.2,49,19.2,43,31.1,31.1L31.1,31.1z"/>
	<g>
		<path class="logoUiClass" d="M113,61c6.9,0,12.5-5.6,12.5-12.5S119.9,36,113,36s-12.5,5.6-12.5,12.5S106.1,61,113,61z"/>
		<path class="logoUiClass" d="M75.5,76c0-5.5-4.5-10-10-10h-15v37.5c0,20.7,16.8,37.5,37.5,37.5c2.6,0,5.1-0.3,7.5-0.8V116H88
		c-6.9,0-12.5-5.6-12.5-12.5V76z"/>
		<path class="logoUiClass" d="M125.5,103.5c0,16.3-10.4,30.2-25,35.4V76c0-5.5,4.5-10,10-10h15V103.5z"/>
	</g>
	<g>
		<path class="logoTextClass" d="M230.6,120.7c11,9.4,25.7,14.8,40,14.8c24.1,0,38.9-11.2,38.9-29.1c0-13.7-9-22.4-26.1-25.2l-18.4-3
		c-7.5-1.3-10.5-3.4-10.5-7.9c0-4.8,5.4-7.7,14.3-7.7c9.4,0,17.9,3.3,27.2,10.5L307.6,57c-9.8-7.9-24.1-12.7-37.3-12.7
		c-22.7,0-36.4,10.4-36.4,27.6c0,13.1,8,21.8,22.4,24.3l19.5,3.4c8.9,1.5,12.3,3.9,12.3,8.9c0,5.4-6,8.6-16,8.6
		c-10.3,0-18.8-3.5-29.5-12.3L230.6,120.7z"/>
		<path class="logoTextClass" d="M325.5,113.9c0,14.1,8.2,21.3,24.3,21.3c3.9,0,10.5-0.9,14.3-2v-16.6c-3.4,1-6,1.4-9.2,1.4c-6.6,0-8.9-2.2-8.9-8.1V84.3
		h18.8V67.2H346V45.6L325.5,50v17.2h-13.6v17.1h13.6V113.9z"/>
		<path class="logoTextClass" d="M369.7,100.8c0,19.5,16,34.7,36.4,34.7s36.4-15.2,36.4-34.7S426.5,66,406.1,66S369.7,81.3,369.7,100.8z M406.1,117.8
		c-9.2,0-16.3-7.5-16.3-17c0-9.6,7.2-17.1,16.3-17.1c9.1,0,16.3,7.5,16.3,17.1C422.4,110.3,415.4,117.8,406.1,117.8z"/>
		<path class="logoTextClass" d="M452.1,134.3h20.5V91.7c3.4-5.3,9.1-8.5,15.6-8.5c3.5,0,7.1,0.8,9.8,2V67.4c-1.8-1.1-3.8-1.5-7.7-1.6
		c-7.2,0-13.2,2.9-17.6,8.2v-6.7h-20.5L452.1,134.3L452.1,134.3z"/>
		<path class="logoTextClass" d="M565.8,125.4l-13.6-12c-3.2,3.3-7.9,5.1-13.4,5.1c-7.7,0-13.8-4.3-16.5-10.6h47.8v-5.1c0-21.2-14.2-36.6-33.8-36.6
		s-35,15.2-35,34.7s16,34.7,36.5,34.7C548.9,135.5,557.3,132.5,565.8,125.4z M535.9,82.8c6.6,0,11.9,4.2,14.1,10.6h-28
		C524,86.7,529,82.8,535.9,82.8z"/>
		<path class="logoTextClass" d="M573.2,67.2v17.1h14.7v49.9h20.5V84.3H626V67.2h-17.6v-3.7c0-5.1,3.2-7.5,9.5-7.5c2.7,0,4.9,0.3,8.1,0.9V40
		c-2.8-0.8-7.4-1.3-10.9-1.3c-17.6,0-27.2,8.6-27.2,24.5v4.1h-14.7V67.2z"/>
		<path class="logoTextClass" d="M634.6,134.3h20.5V91.7c3.4-5.3,9.1-8.5,15.6-8.5c3.5,0,7.1,0.8,9.8,2V67.4c-1.8-1.1-3.8-1.5-7.7-1.6
		c-7.2,0-13.2,2.9-17.6,8.2v-6.7h-20.5L634.6,134.3L634.6,134.3z"/>
		<path class="logoTextClass" d="M683.8,100.8c0,19.5,16,34.7,36.4,34.7s36.4-15.2,36.4-34.7S740.6,66,720.2,66S683.8,81.3,683.8,100.8z M720.2,117.8
		c-9.3,0-16.3-7.5-16.3-17c0-9.6,7.2-17.1,16.3-17.1s16.3,7.5,16.3,17.1C736.5,110.3,729.4,117.8,720.2,117.8z"/>
		<path class="logoTextClass" d="M766.2,134.3h20.5V88.9c2.8-3.4,6.8-5.3,12-5.3c7.4,0,12.2,4.8,12.2,12.2v38.5h20.5V93c0-15.8-11-27-26.7-27
		c-6.8,0-13.1,2-18,5.8v-4.6h-20.5V134.3z"/>
		<path class="logoTextClass" d="M850.7,113.9c0,14.1,8.2,21.3,24.3,21.3c3.9,0,10.5-0.9,14.3-2v-16.6c-3.4,1-6,1.4-9.2,1.4c-6.6,0-8.9-2.2-8.9-8.1V84.3
		H890V67.2h-18.8V45.6L850.7,50v17.2h-13.6v17.1h13.6V113.9z"/>
		<path class="logoTextClass" d="M1003.2,95.6v-50h-21.8v50.1c0,12-7.2,19.8-18.5,19.8s-18.6-7.7-18.6-19.8V45.6h-21.8v50.1c0,24.5,15.7,39.9,40.3,39.9
		C987.2,135.5,1003.2,119.8,1003.2,95.6z"/>
		<path class="logoTextClass" d="M1016.7,134.3h21.8V45.6h-21.8V134.3z"/>
	</g>
</svg>
