<?xml version="1.0" encoding="utf-8"?>
<!-- Generator: Adobe Illustrator 26.2.1, SVG Export Plug-In . SVG Version: 6.00 Build 0)  -->
<svg version="1.1" id="Layer_1" xmlns="http://www.w3.org/2000/svg" xmlns:xlink="http://www.w3.org/1999/xlink" x="0px" y="0px"
	 viewBox="0 0 1301.4 169" style="enable-background:new 0 0 1301.4 169;" xml:space="preserve">
<style type="text/css">
		.st0{fill-rule:evenodd;clip-rule:evenodd;}
</style>
<g>
	<path class="logoTextClass" d="M955.3,66.5h-16.9v19.6h16.9v57.2h23.5V86.1H999V66.5h-20.2v-4.2c0-2.9,0.9-5.1,2.8-6.5c1.8-1.4,4.6-2.1,8.1-2.1
		c1.5,0,3,0.1,4.4,0.2c1.6,0.2,3.3,0.5,4.9,0.8V35.3c-1.9-0.5-3.9-0.8-5.9-1c-2.2-0.3-4.4-0.4-6.6-0.4c-10.1,0-17.8,2.4-23.2,7.3
		c-5.4,4.8-8.1,11.8-8.1,20.8L955.3,66.5L955.3,66.5z"/>
	<path class="logoTextClass" d="M545.8,127.8l13.9-18.2c5.2,4.4,11,8,17.1,10.7c5.3,2.2,11,3.4,16.7,3.3c5.7,0,10.2-0.9,13.4-2.6s4.9-4.2,4.9-7.3
		c0.1-1.3-0.2-2.5-0.8-3.7c-0.6-1.1-1.4-2.1-2.5-2.8c-2.2-1.5-5.8-2.8-10.8-3.6l-22.4-3.9c-8.2-1.5-14.6-4.6-19-9.4
		c-4.5-4.8-6.7-11-6.7-18.4c0-9.8,3.7-17.5,11.1-23.2c7.4-5.7,17.6-8.5,30.6-8.5c7.8,0,15.5,1.4,22.9,3.9
		c7.2,2.3,13.9,5.9,19.8,10.6l-13.2,18.4c-4.7-3.8-10-6.9-15.6-9.2c-5-1.9-10.3-2.9-15.6-2.9c-5,0-9,0.8-12,2.4s-4.4,3.8-4.4,6.5
		c0,1.1,0.2,2.3,0.7,3.3s1.2,1.9,2.2,2.6c1.9,1.4,5,2.4,9.2,3.1l21.1,3.5c9.8,1.6,17.2,4.8,22.3,9.7c5.1,4.9,7.6,11.3,7.6,19.2
		c0,10.3-4,18.4-12,24.4s-18.9,9-32.6,9c-8.3,0-16.6-1.6-24.3-4.5C559.5,137.4,552.2,133.2,545.8,127.8z"/>
	<path class="logoTextClass" d="M280.3,143.3L239.2,41.7h27l28.9,75.7l29.5-75.7h26l-41.7,101.7L280.3,143.3L280.3,143.3z"/>
	<path class="logoTextClass" d="M372.6,66.5v44.2c-0.1,1.9,0.2,3.7,0.8,5.5c0.7,1.7,1.7,3.3,3,4.6c1.3,1.3,2.9,2.3,4.6,3s3.6,1,5.5,0.8
		c2.7,0.1,5.5-0.5,8-1.6c2.3-1,4.3-2.6,5.8-4.5v-52h23.5v76.8h-23.5v-5.2c-2.9,2.2-6.1,3.8-9.5,4.9c-3.6,1.2-7.3,1.8-11.1,1.7
		c-9,0-16.4-2.9-22.1-8.7s-8.6-13.2-8.6-22.2V66.5H372.6z"/>
	<path class="logoTextClass st0" d="M493.9,142c5.4-2.1,10.5-5.1,14.9-8.9l-15.5-13.8c-1.9,1.9-4.2,3.3-6.7,4.3c-2.8,1-5.7,1.6-8.7,1.5
		c-4.1,0.1-8.2-1.1-11.6-3.4c-3.2-2.2-5.7-5.2-7.3-8.8h54.8v-5.8c0-5.7-0.9-11.4-2.9-16.8c-1.8-4.9-4.5-9.4-8.1-13.3
		c-3.6-3.8-7.9-6.8-12.7-8.9c-4.8-2.1-10-3.1-15.2-3c-5.4,0-10.8,1-15.8,3c-4.8,1.9-9.1,4.8-12.7,8.4s-6.5,8-8.5,12.7
		c-2.1,4.9-3.2,10.3-3.1,15.6c0,5.4,1.1,10.7,3.3,15.6c2.1,4.8,5.1,9.1,8.9,12.7c3.8,3.7,8.4,6.5,13.3,8.4
		c5.2,2.1,10.8,3.1,16.4,3.1C482.5,144.9,488.4,143.9,493.9,142z M464.5,87.6c2.9-2.2,6.4-3.3,10-3.2c3.6-0.1,7.1,1.1,9.9,3.3
		c2.9,2.3,5,5.4,6.2,8.9h-32.1C459.5,93,461.6,89.8,464.5,87.6z"/>
	<path class="logoTextClass" d="M654.6,86.1v33.8c0,8,2.3,14.1,7,18.2c4.7,4.1,11.6,6.2,20.8,6.2c2.8,0,5.5-0.3,8.3-0.7c2.8-0.3,5.5-0.9,8.1-1.7v-19
		c-1.8,0.5-3.6,1-5.4,1.2c-1.7,0.2-3.5,0.4-5.2,0.4c-3.8,0-6.4-0.7-7.9-2.1s-2.3-3.8-2.3-7.2V86.1h21.5V66.5H678V41.7l-23.5,5.1
		v19.8H639v19.6L654.6,86.1L654.6,86.1z"/>
	<path class="logoTextClass st0" d="M705.3,105c0-5.4,1.1-10.7,3.3-15.6c2.1-4.8,5.1-9.1,8.9-12.7c3.8-3.6,8.3-6.5,13.2-8.5
		c10.5-4.2,22.2-4.2,32.7,0c4.9,2,9.4,4.9,13.2,8.5s6.8,7.9,8.9,12.7c2.2,4.9,3.3,10.2,3.3,15.6s-1.1,10.7-3.3,15.6
		c-2.1,4.8-5.1,9.1-8.9,12.7c-3.8,3.6-8.3,6.5-13.2,8.4c-10.5,4.1-22.2,4.1-32.7,0c-4.9-1.9-9.4-4.8-13.2-8.4
		c-3.8-3.6-6.8-7.9-8.9-12.7C706.4,115.7,705.3,110.4,705.3,105z M747,124.4c2.5,0,5-0.4,7.2-1.4c2.3-1,4.3-2.4,6-4.2
		c3.5-3.8,5.4-8.7,5.4-13.9c0-5.1-1.9-10.1-5.4-13.9c-1.7-1.8-3.8-3.2-6.1-4.2s-4.7-1.5-7.2-1.5s-4.9,0.5-7.2,1.5s-4.3,2.4-6.1,4.2
		c-3.5,3.8-5.4,8.7-5.4,13.9c0,5.1,1.9,10.1,5.4,13.9c1.7,1.8,3.8,3.3,6,4.2C742,124,744.5,124.5,747,124.4z"/>
	<path class="logoTextClass" d="M799.7,66.5v76.8h23.5V94.5c1.9-3,4.5-5.4,7.6-7.1s6.7-2.6,10.2-2.6c2,0,4,0.2,6,0.7c1.8,0.4,3.5,0.9,5.2,1.7V66.6
		c-1-0.7-2.2-1.2-3.5-1.4c-1.8-0.3-3.6-0.5-5.4-0.5c-3.9-0.1-7.8,0.8-11.3,2.5c-3.4,1.7-6.4,4-8.9,7v-7.7H799.7z"/>
	<path class="logoTextClass st0" d="M930,133.2c-4.4,3.8-9.4,6.8-14.9,8.9c-5.5,1.9-11.4,2.8-17.2,2.8c-5.6,0-11.2-1-16.4-3.1
		c-4.9-1.9-9.5-4.8-13.3-8.4c-3.8-3.6-6.8-7.9-8.9-12.7c-2.2-4.9-3.3-10.2-3.3-15.6s1-10.7,3.1-15.6c2-4.7,4.9-9.1,8.5-12.7
		s8-6.5,12.7-8.4c5-2.1,10.4-3.1,15.8-3c5.2-0.1,10.4,1,15.2,3s9.1,5.1,12.7,8.9c3.5,3.9,6.3,8.4,8.1,13.3c2,5.4,3,11.1,2.9,16.8
		v5.8h-54.8c1.5,3.6,4.1,6.6,7.3,8.8c3.4,2.3,7.5,3.5,11.6,3.4c3,0,5.9-0.5,8.7-1.5c2.5-0.9,4.8-2.4,6.7-4.3L930,133.2z M895.7,84.4
		c-3.6-0.1-7.1,1-10,3.2c-2.9,2.3-5,5.4-6,9h32.1c-1.1-3.5-3.3-6.6-6.2-8.9C902.8,85.5,899.3,84.3,895.7,84.4z"/>
	<path class="logoTextClass" d="M1008.9,143.3V66.5h23.5v7.7c2.4-2.9,5.4-5.3,8.9-7s7.4-2.5,11.3-2.5c1.8,0.1,3.6,0.2,5.4,0.5c1.2,0.2,2.4,0.7,3.5,1.4
		v20.5c-1.7-0.7-3.4-1.3-5.2-1.7c-1.9-0.4-3.9-0.7-5.9-0.7c-3.6,0-7.1,0.9-10.2,2.6s-5.7,4.1-7.6,7.1v48.8h-23.7L1008.9,143.3
		L1008.9,143.3z"/>
	<path class="logoTextClass st0" d="M1068.5,89.4c-2.2,4.9-3.3,10.2-3.3,15.6s1.1,10.7,3.3,15.6c2.1,4.8,5.1,9.1,8.9,12.7s8.3,6.5,13.2,8.4
		c10.5,4.1,22.2,4.1,32.7,0c4.9-1.9,9.4-4.8,13.2-8.4c3.8-3.6,6.8-7.9,8.9-12.7c2.2-4.9,3.3-10.2,3.3-15.6s-1.1-10.7-3.3-15.6
		c-2.1-4.8-5.1-9.1-8.9-12.7s-8.3-6.5-13.2-8.5c-10.5-4.2-22.2-4.2-32.7,0c-4.9,2-9.4,4.9-13.2,8.5
		C1073.6,80.3,1070.6,84.6,1068.5,89.4z M1114.2,123c-2.3,1-4.8,1.5-7.2,1.4c-2.5,0-5-0.4-7.2-1.4c-2.3-1-4.4-2.4-6.1-4.2
		c-3.5-3.8-5.4-8.7-5.4-13.9c0-5.1,1.9-10.1,5.4-13.9c1.7-1.8,3.8-3.2,6.1-4.2c2.3-1,4.7-1.5,7.2-1.5s4.9,0.5,7.2,1.5
		c2.3,1,4.3,2.4,6.1,4.2c3.5,3.8,5.5,8.7,5.5,13.9c0,5.1-1.9,10.1-5.5,13.9C1118.5,120.6,1116.5,122.1,1114.2,123z"/>
	<path class="logoTextClass" d="M1159.7,66.5h23.5v5.2c2.9-2.2,6.1-3.8,9.5-4.9c3.6-1.2,7.3-1.8,11.1-1.7c9,0,16.4,2.9,22.1,8.7s8.6,13.2,8.6,22.2v47.4
		H1211V99.2c0.1-1.9-0.2-3.7-0.8-5.5c-0.7-1.7-1.7-3.3-3-4.6c-1.3-1.3-2.9-2.3-4.6-3s-3.6-1-5.5-0.8c-2.8-0.1-5.5,0.5-8,1.6
		c-2.3,1-4.3,2.6-5.8,4.5v52h-23.5L1159.7,66.5L1159.7,66.5z"/>
	<path class="logoTextClass" d="M1256.4,86.1v33.8c0,8,2.3,14.1,7,18.2c4.7,4.1,11.6,6.2,20.8,6.2c2.8,0,5.5-0.3,8.3-0.7c2.8-0.3,5.5-0.9,8.1-1.7v-19
		c-1.8,0.5-3.6,1-5.4,1.2c-1.7,0.2-3.5,0.4-5.2,0.4c-3.8,0-6.4-0.7-7.9-2.1s-2.2-3.8-2.2-7.2V86.1h21.5V66.5h-21.5V41.7l-23.5,5.1
		v19.8h-15.6v19.6L1256.4,86.1L1256.4,86.1z"/>
</g>
<g>
	<path class="logoColorClass" d="M79.2,2.4c-1.6,1-3.1,2.5-6.2,5.6s-4.6,4.6-5.6,6.2c-3.2,5.2-3.2,11.8,0,17c1,1.6,2.5,3.1,5.6,6.2l0,0
		c3.1,3.1,4.6,4.6,6.2,5.6c5.2,3.2,11.8,3.2,17,0c1.6-1,3.1-2.5,6.2-5.6s4.6-4.6,5.6-6.2c3.2-5.2,3.2-11.8,0-17
		c-1-1.6-2.5-3.1-5.6-6.2s-4.6-4.6-6.2-5.6C91-0.8,84.4-0.8,79.2,2.4z"/>
	<path class="logoColorClass" d="M99.5,98.8L135.4,63c1.5-1.5,3.2-2.7,5.2-3.5c1.9-0.8,4-1.2,6.1-1.2s4.2,0.4,6.1,1.2c1.9,0.8,3.7,2,5.2,3.5
		l18,18c-0.1,0.1-88,88-88,88L0,81c0.2-0.2,10-10,18.2-18.2c1.5-1.5,3.2-2.7,5.2-3.5c1.9-0.8,4-1.2,6.1-1.2s4.2,0.4,6.1,1.2
		s3.7,2,5.2,3.5l36,36c1.5,1.5,3.2,2.7,5.2,3.5c1.9,0.8,4,1.2,6.1,1.2s4.2-0.4,6.1-1.2C96.2,101.5,98,100.3,99.5,98.8z"/>
</g>
</svg>
