<?xml version="1.0" standalone="no"?>
<!DOCTYPE svg PUBLIC "-//W3C//DTD SVG 20010904//EN"
 "http://www.w3.org/TR/2001/REC-SVG-20010904/DTD/svg10.dtd">
<svg version="1.0" xmlns="http://www.w3.org/2000/svg"
 width="700.000000pt" height="700.000000pt" viewBox="0 0 700.000000 700.000000"
 preserveAspectRatio="xMidYMid meet">
<metadata>
Created by potrace 1.14, written by Peter Selinger 2001-2017
</metadata>
<g transform="translate(0.000000,700.000000) scale(0.100000,-0.100000)"
fill="#000000" stroke="none">
<path d="M3332 6840 c-144 -38 -198 -75 -412 -287 -183 -181 -216 -218 -259
-296 -95 -172 -99 -404 -11 -578 43 -83 82 -131 243 -292 178 -179 230 -223
297 -257 202 -102 425 -98 618 12 69 39 324 282 450 428 34 39 95 158 107 205
4 17 9 39 12 50 3 11 7 61 10 110 8 150 -40 299 -134 416 -51 63 -325 337
-383 382 -138 109 -360 153 -538 107z"/>
<path d="M1075 4543 c-47 -6 -152 -43 -203 -71 -77 -42 -111 -74 -500 -462
l-371 -371 1750 -1750 1750 -1750 1750 1750 1750 1750 -379 379 c-209 208
-405 396 -437 416 -117 78 -240 112 -382 103 -130 -8 -182 -23 -293 -84 -55
-30 -184 -155 -830 -800 -421 -419 -781 -775 -800 -789 -209 -154 -516 -157
-733 -7 -29 19 -394 377 -812 794 -418 418 -773 769 -790 780 -139 94 -306
134 -470 112z"/>
</g>
</svg>
