<?xml version="1.0" encoding="utf-8"?>
<!-- Generator: Adobe Illustrator 26.2.1, SVG Export Plug-In . SVG Version: 6.00 Build 0)  -->
<svg version="1.1" id="Layer_2_00000129907841840967170140000008782926693486773919_"
	 xmlns="http://www.w3.org/2000/svg" xmlns:xlink="http://www.w3.org/1999/xlink" x="0px" y="0px" viewBox="0 0 980 551"
	 style="enable-background:new 0 0 980 551;" xml:space="preserve">
<style type="text/css">
	.st0{fill:#E6F9EE;}
	.st1{fill:#02C652;}
</style>
	<path class="st0" d="M459.9,100.3c11.5,18.6,29.8,36.8,66.2,73.2l0,0c36.4,36.4,54.6,54.6,73.2,66.2c61.4,38.2,139.2,38.2,200.6,0
		c18.6-11.5,36.8-29.8,73.2-66.2s54.6-54.6,66.2-73.2C958.4,69.6,968,34.8,968,0H431.3C431.3,34.8,440.8,69.6,459.9,100.3z"/>
<path class="bg-image-cover st1" d="M495,85.7c9.9,15.8,25.4,31.4,56.5,62.5l0,0c31.1,31.1,46.6,46.6,62.5,56.5
	c52.4,32.6,118.9,32.6,171.3,0c15.8-9.9,31.4-25.4,62.5-56.5s46.6-46.6,56.5-62.5c16.3-26.2,24.5-55.9,24.5-85.7H470.5
	C470.5,29.7,478.7,59.4,495,85.7z"/>
</svg>
