<?xml version="1.0" encoding="utf-8"?>
<!-- Generator: Adobe Illustrator 26.2.1, SVG Export Plug-In . SVG Version: 6.00 Build 0)  -->
<svg version="1.1" id="Layer_1"
	xmlns="http://www.w3.org/2000/svg"
	xmlns:xlink="http://www.w3.org/1999/xlink" x="0px" y="0px" viewBox="0 0 1063 622.3" style="enable-background:new 0 0 1063 622.3;" xml:space="preserve">
	<style type="text/css">
		.st0{fill-rule:evenodd;clip-rule:evenodd;}
	</style>
	<g id="text">
		<path class="logoTextClass" d="M716.1,543.9h-16.9v19.6h16.9v57.2h23.5v-57.2h20.2v-19.6h-20.2v-4.2c0-2.9,0.9-5.1,2.8-6.5c1.8-1.4,4.6-2.1,8.1-2.1
		c1.5,0,3,0.1,4.4,0.2c1.6,0.2,3.3,0.5,4.9,0.8v-19.5c-1.9-0.5-3.9-0.8-5.9-1c-2.2-0.3-4.4-0.4-6.6-0.4c-10.1,0-17.8,2.4-23.2,7.3
		c-5.4,4.8-8.1,11.8-8.1,20.8L716.1,543.9L716.1,543.9z"/>
		<path class="logoTextClass" d="M306.6,605.2l13.9-18.2c5.2,4.4,11,8,17.1,10.7c5.3,2.2,11,3.4,16.7,3.3c5.7,0,10.2-0.9,13.4-2.6c3.2-1.7,4.9-4.2,4.9-7.3
		c0.1-1.3-0.2-2.5-0.8-3.7c-0.6-1.1-1.4-2.1-2.5-2.8c-2.2-1.5-5.8-2.8-10.8-3.6l-22.4-3.9c-8.2-1.5-14.6-4.6-19-9.4
		c-4.5-4.8-6.7-11-6.7-18.4c0-9.8,3.7-17.5,11.1-23.2s17.6-8.5,30.6-8.5c7.8,0,15.5,1.4,22.9,3.9c7.2,2.3,13.9,5.9,19.8,10.6
		l-13.2,18.4c-4.7-3.8-10-6.9-15.6-9.2c-5-1.9-10.3-2.9-15.6-2.9c-5,0-9,0.8-12,2.4c-3,1.6-4.4,3.8-4.4,6.5c0,1.1,0.2,2.3,0.7,3.3
		s1.2,1.9,2.2,2.6c1.9,1.4,5,2.4,9.2,3.1l21.1,3.5c9.8,1.5,17.2,4.8,22.3,9.7c5.1,4.9,7.6,11.3,7.6,19.2c0,10.3-4,18.4-12,24.4
		s-18.9,9-32.6,9c-8.3,0-16.6-1.6-24.3-4.5C320.3,614.8,313,610.6,306.6,605.2z"/>
		<path class="logoTextClass" d="M41.1,620.8L0,519.1h27l28.9,75.7l29.5-75.7h26L69.7,620.8H41.1z"/>
		<path class="logoTextClass" d="M133.3,543.9v44.2c-0.1,1.9,0.2,3.7,0.8,5.5c0.7,1.7,1.7,3.3,3,4.6s2.9,2.3,4.6,3c1.7,0.7,3.6,1,5.5,0.8
		c2.7,0.1,5.5-0.5,8-1.6c2.3-1,4.3-2.6,5.8-4.5v-52h23.5v76.8H161v-5.2c-2.9,2.2-6.1,3.8-9.5,4.9c-3.6,1.2-7.3,1.8-11.1,1.7
		c-9,0-16.4-2.9-22.1-8.7s-8.6-13.2-8.6-22.2v-47.4h23.6V543.9z"/>
		<path class="logoTextClass st0" d="M254.7,619.5c5.4-2.1,10.5-5.1,14.9-8.9L254,596.8c-1.9,1.9-4.2,3.3-6.7,4.3c-2.8,1-5.7,1.6-8.7,1.5
		c-4.1,0.1-8.2-1.1-11.6-3.4c-3.2-2.2-5.7-5.2-7.3-8.8h54.8v-5.8c0-5.7-0.9-11.4-2.9-16.8c-1.8-4.9-4.5-9.4-8.1-13.3
		c-3.6-3.8-7.9-6.8-12.7-8.9c-4.8-2-10-3.1-15.2-3c-5.4,0-10.8,1-15.8,3.1c-4.8,1.9-9.1,4.8-12.7,8.4c-3.6,3.6-6.5,8-8.5,12.7
		c-2.1,4.9-3.2,10.3-3.1,15.6c0,5.4,1.1,10.7,3.3,15.6c2.1,4.8,5.1,9.1,8.9,12.7c3.8,3.7,8.4,6.5,13.3,8.4c5.2,2.1,10.8,3.1,16.4,3
		C243.3,622.3,249.2,621.4,254.7,619.5z M225.3,565c2.9-2.2,6.4-3.3,10-3.2c3.6-0.1,7.1,1.1,9.9,3.3c2.9,2.3,5,5.4,6.2,8.9h-32.1
		C220.3,570.4,222.4,567.3,225.3,565z"/>
		<path class="logoTextClass" d="M415.4,563.5v33.8c0,8,2.3,14.1,7,18.2c4.7,4.1,11.6,6.2,20.8,6.2c2.8,0,5.5-0.3,8.3-0.7c2.8-0.3,5.5-0.9,8.1-1.7v-19
		c-1.8,0.5-3.6,1-5.4,1.2c-1.7,0.2-3.5,0.4-5.2,0.4c-3.8,0-6.4-0.7-7.9-2.1c-1.5-1.4-2.3-3.8-2.3-7.2v-29.2h21.5v-19.6h-21.5V519
		l-23.5,5.1v19.8h-15.5v19.6L415.4,563.5L415.4,563.5z"/>
		<path class="logoTextClass st0" d="M466.1,582.4c0-5.4,1.1-10.7,3.3-15.6c2.1-4.8,5.1-9.1,8.9-12.7c3.8-3.6,8.3-6.5,13.2-8.5
		c10.5-4.2,22.2-4.2,32.7,0c4.9,2,9.4,4.9,13.2,8.5s6.8,7.9,8.9,12.7c2.2,4.9,3.3,10.2,3.3,15.6s-1.1,10.7-3.3,15.6
		c-2.1,4.8-5.1,9.1-8.9,12.7c-3.8,3.6-8.3,6.5-13.2,8.4c-10.5,4.1-22.2,4.1-32.7,0c-4.9-1.9-9.4-4.8-13.2-8.4
		c-3.8-3.6-6.8-7.9-8.9-12.7C467.2,593.1,466.1,587.8,466.1,582.4z M507.8,601.9c2.5,0,5-0.4,7.2-1.4c2.3-1,4.3-2.4,6-4.2
		c3.5-3.8,5.4-8.7,5.4-13.9c0-5.1-1.9-10.1-5.4-13.9c-1.7-1.8-3.8-3.2-6.1-4.2s-4.7-1.5-7.2-1.5s-4.9,0.5-7.2,1.5
		c-2.3,1-4.3,2.4-6.1,4.2c-3.5,3.8-5.4,8.7-5.4,13.9c0,5.1,1.9,10.1,5.4,13.9c1.7,1.8,3.8,3.3,6,4.2
		C502.8,601.4,505.3,601.9,507.8,601.9z"/>
		<path class="logoTextClass" d="M560.5,543.9v76.8H584V572c1.9-3,4.5-5.4,7.6-7.1c3.1-1.7,6.7-2.6,10.2-2.6c2,0,4,0.2,6,0.7c1.8,0.4,3.5,1,5.2,1.7v-20.5
		c-1-0.7-2.2-1.2-3.5-1.4c-1.8-0.3-3.6-0.5-5.4-0.5c-3.9-0.1-7.8,0.8-11.3,2.5c-3.4,1.7-6.4,4-8.9,7v-7.7h-23.4L560.5,543.9
		L560.5,543.9z"/>
		<path class="logoTextClass st0" d="M690.8,610.6c-4.4,3.8-9.4,6.8-14.9,8.9c-5.5,1.9-11.4,2.8-17.2,2.8c-5.6,0-11.2-1-16.4-3
		c-4.9-1.9-9.5-4.8-13.3-8.4c-3.8-3.6-6.8-7.9-8.9-12.7c-2.2-4.9-3.3-10.2-3.3-15.6c0-5.4,1-10.7,3.1-15.6c2-4.7,4.9-9.1,8.5-12.7
		c3.6-3.6,8-6.5,12.7-8.4c5-2.1,10.4-3.1,15.8-3.1c5.2-0.1,10.4,1,15.2,3s9.1,5.1,12.7,8.9c3.5,3.9,6.3,8.4,8.1,13.3
		c2,5.4,3,11.1,2.9,16.8v5.8H641c1.5,3.6,4.1,6.6,7.3,8.8c3.4,2.3,7.5,3.5,11.6,3.4c3,0,5.9-0.5,8.7-1.5c2.5-0.9,4.8-2.4,6.7-4.3
		L690.8,610.6z M656.5,561.8c-3.6-0.1-7.1,1-10,3.2c-2.9,2.3-5,5.4-6,9h32.1c-1.1-3.5-3.3-6.6-6.2-8.9
		C663.6,562.9,660.1,561.7,656.5,561.8z"/>
		<path class="logoTextClass" d="M769.7,620.8V544h23.5v7.7c2.4-2.9,5.4-5.3,8.9-7s7.4-2.5,11.3-2.5c1.8,0.1,3.6,0.2,5.4,0.5c1.2,0.2,2.4,0.7,3.5,1.4v20.5
		c-1.7-0.7-3.4-1.3-5.2-1.7c-2-0.4-4-0.7-6-0.7c-3.6,0-7.1,0.9-10.2,2.6c-3.1,1.7-5.7,4.1-7.6,7.1v48.8h-23.6L769.7,620.8
		L769.7,620.8z"/>
		<path class="logoTextClass st0" d="M829.3,566.8c-2.2,4.9-3.3,10.2-3.3,15.6c0,5.4,1.1,10.7,3.3,15.6c2.1,4.8,5.1,9.1,8.9,12.7
		c3.8,3.6,8.3,6.5,13.2,8.4c10.5,4.1,22.2,4.1,32.7,0c4.9-1.9,9.4-4.8,13.2-8.4c3.8-3.6,6.8-7.9,8.9-12.7c2.2-4.9,3.3-10.2,3.3-15.6
		s-1.1-10.7-3.3-15.6c-2.1-4.8-5.1-9.1-8.9-12.7c-3.8-3.6-8.3-6.5-13.2-8.5c-10.5-4.2-22.2-4.2-32.7,0c-4.9,2-9.4,4.9-13.2,8.5
		C834.4,557.7,831.4,562,829.3,566.8z M875,600.5c-2.3,1-4.8,1.5-7.2,1.4c-2.5,0-5-0.4-7.2-1.4c-2.3-1-4.3-2.4-6-4.2
		c-3.5-3.8-5.4-8.7-5.4-13.9c0-5.1,1.9-10.1,5.4-13.9c1.7-1.8,3.8-3.2,6.1-4.2s4.7-1.5,7.2-1.5s4.9,0.5,7.2,1.5s4.3,2.4,6.1,4.2
		c3.5,3.8,5.4,8.7,5.4,13.9c0,5.1-1.9,10.1-5.4,13.9C879.3,598,877.2,599.5,875,600.5z"/>
		<path class="logoTextClass" d="M920.4,543.9H944v5.2c2.9-2.2,6.1-3.8,9.5-4.9c3.6-1.2,7.3-1.8,11.1-1.7c9,0,16.4,2.9,22.1,8.7c5.7,5.8,8.6,13.2,8.6,22.2
		v47.4h-23.5v-44.2c0.1-1.9-0.2-3.7-0.8-5.5c-0.7-1.7-1.7-3.3-3-4.6s-2.9-2.3-4.6-3c-1.7-0.7-3.6-1-5.5-0.8c-2.7-0.1-5.5,0.5-8,1.6
		c-2.3,1-4.3,2.6-5.8,4.5v52h-23.5v-76.9H920.4z"/>
		<path class="logoTextClass" d="M1017.2,563.5v33.8c0,8,2.3,14.1,7,18.2c4.7,4.1,11.6,6.2,20.9,6.2c2.8,0,5.5-0.3,8.3-0.7c2.8-0.3,5.5-0.9,8.1-1.7v-19
		c-1.8,0.5-3.6,1-5.4,1.2c-1.7,0.2-3.5,0.4-5.2,0.4c-3.8,0-6.4-0.7-7.9-2.1c-1.5-1.4-2.2-3.8-2.2-7.2v-29.2h21.5v-19.6h-21.5V519
		l-23.5,5.1v19.8h-15.5v19.6L1017.2,563.5L1017.2,563.5z"/>
	</g>
	<g id="logo">
		<path class="logoColorClass" d="M510,6.1c-3.9,2.4-7.8,6.3-15.5,14s-11.6,11.6-14,15.5c-8.1,13-8.1,29.4,0,42.4c2.4,3.9,6.3,7.8,14,15.5l0,0
		c7.7,7.7,11.6,11.6,15.5,14c13,8.1,29.4,8.1,42.4,0c3.9-2.4,7.8-6.3,15.5-14s11.6-11.6,14-15.5c8.1-13,8.1-29.4,0-42.4
		c-2.4-3.9-6.3-7.8-14-15.5s-11.6-11.6-15.5-14C539.5-2,523-2,510,6.1z"/>
		<path class="logoColorClass" d="M560.7,247.1l89.7-89.7c3.7-3.7,8.1-6.7,13-8.7s10.1-3,15.3-3s10.5,1,15.3,3c4.9,2,9.3,5,13,8.7l45,45
		c-0.3,0.3-220,220-220,220l-220-220c0.6-0.6,25-25,45.5-45.5c3.7-3.7,8.1-6.7,13-8.7s10-3,15.3-3s10.4,1,15.3,3s9.3,5,13,8.7
		l90.1,90.1c3.7,3.7,8.1,6.7,13,8.7c4.9,2,10.1,3,15.3,3s10.4-1,15.3-3C552.6,253.8,557,250.8,560.7,247.1z"/>
	</g>
</svg>
